<?xml version="1.0" standalone="no"?>
<!DOCTYPE svg PUBLIC "-//W3C//DTD SVG 20010904//EN"
 "http://www.w3.org/TR/2001/REC-SVG-20010904/DTD/svg10.dtd">
<svg version="1.0" xmlns="http://www.w3.org/2000/svg"
 width="314.000000pt" height="299.000000pt" viewBox="0 0 314.000000 299.000000"
 preserveAspectRatio="xMidYMid meet">

<g transform="translate(0.000000,299.000000) scale(0.100000,-0.100000)"
fill="#b8b8b8ff" stroke="none">
<path d="M1745 2726 c-349 -68 -615 -331 -682 -671 l-17 -90 -136 -1 c-119 0
-144 -3 -215 -27 -302 -101 -505 -380 -505 -693 0 -204 110 -435 268 -559 240
-191 569 -215 826 -60 l57 34 19 -43 c10 -24 30 -62 43 -84 l26 -39 -85 -126
c-133 -200 -128 -205 149 -149 l202 40 55 -23 c311 -131 688 -17 874 264 166
251 167 562 1 811 l-44 65 20 30 c289 439 138 1013 -328 1248 -142 72 -370
104 -528 73z m397 -113 c227 -79 407 -261 484 -488 36 -107 45 -285 19 -402
-65 -297 -298 -526 -597 -587 -534 -110 -1012 368 -902 902 50 243 204 438
430 544 115 54 190 68 344 65 121 -3 144 -7 222 -34z m-1103 -738 c1 -2 7 -38
12 -79 4 -42 13 -93 18 -113 16 -56 15 -59 -27 -71 -21 -7 -58 -25 -82 -41
l-43 -29 -45 29 c-136 86 -282 76 -384 -26 -151 -151 -94 -405 131 -589 71
-58 240 -163 279 -173 48 -12 245 106 354 211 l57 55 -6 -97 c-3 -53 -1 -121
5 -150 l10 -54 -60 -39 c-117 -75 -236 -105 -386 -96 -162 9 -293 68 -407 183
-125 124 -186 274 -186 452 1 183 57 318 186 447 106 106 217 163 359 186 46
7 206 2 215 -6z m-252 -356 c24 -10 59 -34 79 -53 21 -20 43 -36 51 -36 7 0
33 18 57 40 41 38 100 70 130 70 7 0 26 -24 41 -52 33 -64 94 -147 146 -199
38 -38 39 -40 25 -72 -40 -95 -173 -222 -322 -307 l-77 -44 -61 33 c-221 121
-352 271 -364 417 -4 55 -1 71 22 118 52 105 153 137 273 85z m1762 -248 c72
-100 111 -228 111 -359 0 -122 -13 -179 -67 -291 -103 -216 -321 -351 -565
-351 -105 0 -172 13 -258 50 l-65 28 -145 -29 c-79 -16 -148 -28 -152 -27 -4
2 19 44 52 93 33 50 60 98 60 107 0 9 -18 45 -39 80 -62 99 -84 175 -89 305
-4 116 14 230 43 269 11 16 15 16 58 -9 68 -40 211 -85 311 -97 163 -20 348
16 495 96 68 37 163 107 195 143 25 27 31 27 55 -8z"/>
<path d="M1844 2517 c-25 -22 -28 -32 -35 -126 -13 -173 -47 -297 -94 -341
-23 -22 -25 -22 -65 -6 -57 23 -229 22 -277 -1 -70 -33 -74 -48 -71 -315 l3
-238 33 -32 32 -33 130 -3 c117 -3 134 -2 165 17 35 20 35 20 68 1 30 -19 51
-20 335 -20 l302 0 38 34 c36 33 37 37 36 100 0 36 2 66 5 66 19 0 43 65 39
108 -2 36 2 54 18 77 32 44 38 87 20 130 -15 34 -15 41 1 84 16 45 16 49 -3
86 -36 74 -53 80 -245 83 l-169 4 0 63 c0 116 -53 235 -120 270 -45 23 -114
19 -146 -8z m125 -86 c37 -40 51 -93 51 -197 0 -139 -8 -134 219 -134 191 0
211 -4 211 -40 -1 -37 -18 -45 -112 -50 -88 -5 -93 -6 -96 -28 -6 -42 13 -52
103 -52 91 0 112 -11 101 -54 -7 -29 -30 -36 -123 -36 -69 0 -73 -1 -79 -25
-10 -40 11 -55 77 -55 39 0 63 -5 73 -16 38 -38 3 -72 -78 -76 -43 -2 -62 -8
-70 -20 -18 -29 5 -52 54 -58 55 -6 78 -35 54 -68 -15 -22 -18 -22 -285 -22
-275 0 -298 3 -326 39 -9 11 -12 74 -13 211 l0 196 39 38 c22 22 49 61 61 88
27 63 56 200 65 306 6 73 9 82 27 82 11 0 32 -13 47 -29z m-341 -473 c9 -9 12
-73 12 -225 0 -249 9 -233 -127 -233 -134 0 -127 -10 -131 222 -2 117 1 204 7
221 l11 27 108 0 c71 0 112 -4 120 -12z"/>
<path d="M1656 934 c-9 -8 -16 -22 -16 -29 0 -7 7 -21 16 -29 13 -14 61 -16
369 -16 308 0 356 2 369 16 9 8 16 22 16 29 0 7 -7 21 -16 29 -13 14 -61 16
-369 16 -308 0 -356 -2 -369 -16z"/>
<path d="M1656 764 c-9 -8 -16 -22 -16 -29 0 -7 7 -21 16 -29 13 -14 61 -16
369 -16 308 0 356 2 369 16 9 8 16 22 16 29 0 7 -7 21 -16 29 -13 14 -61 16
-369 16 -308 0 -356 -2 -369 -16z"/>
<path d="M1656 594 c-9 -8 -16 -22 -16 -29 0 -7 7 -21 16 -29 23 -24 375 -24
398 0 21 20 20 37 -2 57 -27 25 -372 25 -396 1z"/>
</g>
</svg>
